<svg width="42" height="42" viewBox="0 0 42 42" fill="none" xmlns="http://www.w3.org/2000/svg">
<path d="M23.8756 3.99279C23.8756 2.25962 22.4754 0.859375 20.7422 0.859375C19.009 0.859375 17.6088 2.25962 17.6088 3.99279V18.0931H3.50841C1.77524 18.0931 0.375 19.4934 0.375 21.2266C0.375 22.9597 1.77524 24.36 3.50841 24.36H17.6088V38.4603C17.6088 40.1935 19.009 41.5938 20.7422 41.5938C22.4754 41.5938 23.8756 40.1935 23.8756 38.4603V24.36H37.976C39.7091 24.36 41.1094 22.9597 41.1094 21.2266C41.1094 19.4934 39.7091 18.0931 37.976 18.0931H23.8756V3.99279Z" fill="#6DAFDE"/>
</svg>
